<svg width="32" height="32" viewBox="0 0 32 32" fill="none" xmlns="http://www.w3.org/2000/svg">
  <defs>
    <radialGradient id="yarnGradient" cx="45%" cy="45%" r="50%">
      <stop offset="0%" stop-color="#F5F5DC" />
      <stop offset="100%" stop-color="#E5D3B3" />
    </radialGradient>
    <linearGradient id="needleGradient" x1="0" y1="0" x2="1" y2="1">
      <stop offset="0%" stop-color="#D1D1D1" />
      <stop offset="100%" stop-color="#A9A9A9" />
    </linearGradient>
  </defs>

  <circle cx="16" cy="18" r="12" fill="url(#yarnGradient)" />
  
  <path d="M7 13.5C10 10 16 9 21 12" stroke="#D2B48C" stroke-width="0.8" stroke-linecap="round" opacity="0.6" />
  <path d="M5 18C10 16 18 16 26 21" stroke="#D2B48C" stroke-width="0.8" stroke-linecap="round" opacity="0.5" />
  <path d="M10 27C14 24 22 23 27 15" stroke="#D2B48C" stroke-width="0.8" stroke-linecap="round" opacity="0.4" />
  <path d="M16 6C16 10 14 20 18 30" stroke="#D2B48C" stroke-width="0.8" stroke-linecap="round" opacity="0.3" />

  <g transform="rotate(-45 16 16)">
    <rect x="2" y="15" width="28" height="1.5" rx="0.75" fill="url(#needleGradient)" />
    <path d="M30 15.75L27 14.5V17L30 15.75Z" fill="#A9A9A9" />
    <circle cx="2" cy="15.75" r="2" fill="#C19A6B" />
  </g>

  <ellipse cx="12" cy="13" rx="3" ry="2" fill="white" fill-opacity="0.3" />
</svg>
